{
  "accessors": [
    {
      "bufferView": 2,
      "componentType": 5126,
      "count": 608,
      "max": [
        3.0,
        4.5953168869018555,
        3.0
      ],
      "min": [
        -3.0,
        -1.1651896238327026,
        -3.0
      ],
      "type": "VEC3"
    },
    {
      "bufferView": 2,
      "byteOffset": 7296,
      "componentType": 5126,
      "count": 608,
      "max": [
        1.0,
        0.9940722584724426,
        1.0
      ],
      "min": [
        -1.0,
        -1.0,
        -1.0
      ],
      "type": "VEC3"
    },
    {
      "bufferView": 1,
      "componentType": 5126,
      "count": 608,
      "max": [
        1.0,
        0.9237596988677979
      ],
      "min": [
        0.0,
        0.0
      ],
      "type": "VEC2"
    },
    {
      "bufferView": 0,
      "componentType": 5125,
      "count": 2106,
      "type": "SCALAR"
    },
    {
      "bufferView": 2,
      "byteOffset": 14592,
      "componentType": 5126,
      "count": 64,
      "max": [
        2.3556628227233887,
        -0.6556627750396729,
        2.3556628227233887
      ],
      "min": [
        -2.3556628227233887,
        -1.0093125104904175,
        -2.3556628227233887
      ],
      "type": "VEC3"
    },
    {
      "bufferView": 2,
      "byteOffset": 15360,
      "componentType": 5126,
      "count": 64,
      "max": [
        0.6806676983833313,
        -0.6452093720436096,
        0.6806676983833313
      ],
      "min": [
        -0.6806676983833313,
        -0.962022602558136,
        -0.6806676983833313
      ],
      "type": "VEC3"
    },
    {
      "bufferView": 1,
      "byteOffset": 4864,
      "componentType": 5126,
      "count": 64,
      "max": [
        0.33065497875213623,
        0.8626992702484131
      ],
      "min": [
        0.0,
        0.3164716958999634
      ],
      "type": "VEC2"
    },
    {
      "bufferView": 0,
      "byteOffset": 8424,
      "componentType": 5125,
      "count": 258,
      "type": "SCALAR"
    },
    {
      "bufferView": 2,
      "byteOffset": 16128,
      "componentType": 5126,
      "count": 1162,
      "max": [
        1.9000000953674316,
        4.010000228881836,
        1.2999999523162842
      ],
      "min": [
        -1.9000000953674316,
        -1.0,
        -0.3000001609325409
      ],
      "type": "VEC3"
    },
    {
      "bufferView": 2,
      "byteOffset": 30072,
      "componentType": 5126,
      "count": 1162,
      "max": [
        1.0,
        1.0,
        1.0
      ],
      "min": [
        -1.0,
        -1.0,
        -1.0
      ],
      "type": "VEC3"
    },
    {
      "bufferView": 1,
      "byteOffset": 5376,
      "componentType": 5126,
      "count": 1162,
      "max": [
        0.9973663091659546,
        1.0
      ],
      "min": [
        0.0,
        0.0
      ],
      "type": "VEC2"
    },
    {
      "bufferView": 0,
      "byteOffset": 9456,
      "componentType": 5125,
      "count": 3498,
      "type": "SCALAR"
    },
    {
      "bufferView": 2,
      "byteOffset": 44016,
      "componentType": 5126,
      "count": 1800,
      "max": [
        1.6671533584594727,
        1.667153239250183,
        -0.3553454279899597
      ],
      "min": [
        -1.6671522855758667,
        -1.6671524047851563,
        -1.0655860900878906
      ],
      "type": "VEC3"
    },
    {
      "bufferView": 2,
      "byteOffset": 65616,
      "componentType": 5126,
      "count": 1800,
      "max": [
        1.0,
        1.0,
        1.0
      ],
      "min": [
        -1.0,
        -1.0,
        -1.0
      ],
      "type": "VEC3"
    },
    {
      "bufferView": 1,
      "byteOffset": 14672,
      "componentType": 5126,
      "count": 1800,
      "max": [
        1.0,
        0.9926120042800903
      ],
      "min": [
        0.0,
        0.0
      ],
      "type": "VEC2"
    },
    {
      "bufferView": 0,
      "byteOffset": 23448,
      "componentType": 5125,
      "count": 7284,
      "type": "SCALAR"
    },
    {
      "bufferView": 2,
      "byteOffset": 87216,
      "componentType": 5126,
      "count": 1048,
      "max": [
        0.9600000381469727,
        0.9600000381469727,
        0.08000000566244125
      ],
      "min": [
        -0.9600000381469727,
        -0.9600000381469727,
        -0.6361504793167114
      ],
      "type": "VEC3"
    },
    {
      "bufferView": 2,
      "byteOffset": 99792,
      "componentType": 5126,
      "count": 1048,
      "max": [
        1.0,
        1.0,
        1.0
      ],
      "min": [
        -1.0,
        -1.0,
        -1.0
      ],
      "type": "VEC3"
    },
    {
      "bufferView": 1,
      "byteOffset": 29072,
      "componentType": 5126,
      "count": 1048,
      "max": [
        0.9925050735473633,
        1.0
      ],
      "min": [
        0.0,
        0.0
      ],
      "type": "VEC2"
    },
    {
      "bufferView": 0,
      "byteOffset": 52584,
      "componentType": 5125,
      "count": 4212,
      "type": "SCALAR"
    },
    {
      "bufferView": 2,
      "byteOffset": 112368,
      "componentType": 5126,
      "count": 2489,
      "max": [
        0.9900002479553223,
        0.7781819105148315,
        1.0
      ],
      "min": [
        -0.9900002479553223,
        -1.0060231685638428,
        -0.9900000691413879
      ],
      "type": "VEC3"
    },
    {
      "bufferView": 2,
      "byteOffset": 142236,
      "componentType": 5126,
      "count": 2489,
      "max": [
        1.0,
        1.0,
        1.0
      ],
      "min": [
        -1.0,
        -1.0,
        -1.0
      ],
      "type": "VEC3"
    },
    {
      "bufferView": 1,
      "byteOffset": 37456,
      "componentType": 5126,
      "count": 2489,
      "max": [
        0.9999999403953552,
        0.9167339205741882
      ],
      "min": [
        0.0,
        0.0
      ],
      "type": "VEC2"
    },
    {
      "bufferView": 0,
      "byteOffset": 69432,
      "componentType": 5125,
      "count": 6741,
      "type": "SCALAR"
    },
    {
      "bufferView": 2,
      "byteOffset": 172104,
      "componentType": 5126,
      "count": 546,
      "max": [
        4.099999904632568,
        1.1997687816619873,
        0.11618673801422119
      ],
      "min": [
        -3.799999952316284,
        -1.2702312469482422,
        -0.13173168897628784
      ],
      "type": "VEC3"
    },
    {
      "bufferView": 2,
      "byteOffset": 178656,
      "componentType": 5126,
      "count": 546,
      "max": [
        1.0,
        0.9991345405578613,
        0.9999018907546997
      ],
      "min": [
        -1.0,
        -0.9991332292556763,
        -1.0
      ],
      "type": "VEC3"
    },
    {
      "bufferView": 1,
      "byteOffset": 57368,
      "componentType": 5126,
      "count": 546,
      "max": [
        1.0,
        0.926327109336853
      ],
      "min": [
        0.0,
        0.0
      ],
      "type": "VEC2"
    },
    {
      "bufferView": 0,
      "byteOffset": 96396,
      "componentType": 5125,
      "count": 1314,
      "type": "SCALAR"
    },
    {
      "bufferView": 2,
      "byteOffset": 185208,
      "componentType": 5126,
      "count": 4180,
      "max": [
        0.5200001001358032,
        0.4217338562011719,
        0.08390503376722336
      ],
      "min": [
        -4.607142925262451,
        -0.9504779577255249,
        -0.09035148471593857
      ],
      "type": "VEC3"
    },
    {
      "bufferView": 2,
      "byteOffset": 235368,
      "componentType": 5126,
      "count": 4180,
      "max": [
        0.9980544447898865,
        0.9980544447898865,
        0.9906083345413208
      ],
      "min": [
        -0.9980544447898865,
        -0.9980544447898865,
        -1.0
      ],
      "type": "VEC3"
    },
    {
      "bufferView": 1,
      "byteOffset": 61736,
      "componentType": 5126,
      "count": 4180,
      "max": [
        0.9955404996871948,
        1.0
      ],
      "min": [
        0.0,
        0.0
      ],
      "type": "VEC2"
    },
    {
      "bufferView": 0,
      "byteOffset": 101652,
      "componentType": 5125,
      "count": 10260,
      "type": "SCALAR"
    }
  ],
  "asset": {
    "extras": {
      "author": "Zeppelin (https://sketchfab.com/zeppelingames)",
      "license": "CC-BY-4.0 (http://creativecommons.org/licenses/by/4.0/)",
      "source": "https://sketchfab.com/3d-models/desktop-computer-e6332b415ccd4a61acdff22b4636ce16",
      "title": "Desktop Computer"
    },
    "generator": "Sketchfab-12.66.0",
    "version": "2.0"
  },
  "bufferViews": [
    {
      "buffer": 0,
      "byteLength": 142692,
      "name": "floatBufferViews",
      "target": 34963
    },
    {
      "buffer": 0,
      "byteLength": 95176,
      "byteOffset": 142692,
      "byteStride": 8,
      "name": "floatBufferViews",
      "target": 34962
    },
    {
      "buffer": 0,
      "byteLength": 285528,
      "byteOffset": 237868,
      "byteStride": 12,
      "name": "floatBufferViews",
      "target": 34962
    }
  ],
  "buffers": [
    {
      "byteLength": 523396,
      "uri": "scene.bin"
    }
  ],
  "extensionsUsed": [
    "KHR_materials_clearcoat"
  ],
  "materials": [
    {
      "doubleSided": true,
      "name": "Monitor",
      "pbrMetallicRoughness": {
        "baseColorFactor": [
          0.514918,
          0.386429,
          0.258183,
          1.0
        ],
        "metallicFactor": 0.0,
        "roughnessFactor": 0.5
      }
    },
    {
      "doubleSided": true,
      "extensions": {
        "KHR_materials_clearcoat": {
          "clearcoatFactor": 1.0,
          "clearcoatRoughnessFactor": 0.04
        }
      },
      "name": "MonitorGlass",
      "pbrMetallicRoughness": {
        "baseColorFactor": [
          0.0,
          0.0,
          0.0,
          1.0
        ],
        "metallicFactor": 0.0,
        "roughnessFactor": 0.0
      }
    },
    {
      "doubleSided": true,
      "name": "MonitorBase",
      "pbrMetallicRoughness": {
        "baseColorFactor": [
          0.514918,
          0.386429,
          0.258183,
          1.0
        ],
        "metallicFactor": 0.0,
        "roughnessFactor": 0.5
      }
    },
    {
      "doubleSided": true,
      "name": "StandBase",
      "pbrMetallicRoughness": {
        "baseColorFactor": [
          0.514918,
          0.386429,
          0.258183,
          1.0
        ],
        "metallicFactor": 0.0,
        "roughnessFactor": 0.5
      }
    },
    {
      "doubleSided": true,
      "name": "MonitorStand",
      "pbrMetallicRoughness": {
        "baseColorFactor": [
          0.514918,
          0.386429,
          0.258183,
          1.0
        ],
        "metallicFactor": 0.0,
        "roughnessFactor": 0.5
      }
    },
    {
      "doubleSided": true,
      "name": "material_0",
      "pbrMetallicRoughness": {
        "baseColorFactor": [
          0.514918,
          0.386429,
          0.258183,
          1.0
        ],
        "metallicFactor": 0.0,
        "roughnessFactor": 0.5
      }
    },
    {
      "doubleSided": true,
      "name": "Keyboard",
      "pbrMetallicRoughness": {
        "baseColorFactor": [
          0.514918,
          0.386429,
          0.258183,
          1.0
        ],
        "metallicFactor": 0.0,
        "roughnessFactor": 0.5
      }
    },
    {
      "doubleSided": true,
      "name": "KeyboardKeys",
      "pbrMetallicRoughness": {
        "baseColorFactor": [
          0.514918,
          0.386429,
          0.258183,
          1.0
        ],
        "metallicFactor": 0.0,
        "roughnessFactor": 0.5
      }
    }
  ],
  "meshes": [
    {
      "name": "Monitor_Monitor_0",
      "primitives": [
        {
          "attributes": {
            "NORMAL": 1,
            "POSITION": 0,
            "TEXCOORD_0": 2
          },
          "indices": 3,
          "material": 0,
          "mode": 4
        }
      ]
    },
    {
      "name": "Monitor_MonitorGlass_0",
      "primitives": [
        {
          "attributes": {
            "NORMAL": 5,
            "POSITION": 4,
            "TEXCOORD_0": 6
          },
          "indices": 7,
          "material": 1,
          "mode": 4
        }
      ]
    },
    {
      "name": "UnderMonitor_MonitorBase_0",
      "primitives": [
        {
          "attributes": {
            "NORMAL": 9,
            "POSITION": 8,
            "TEXCOORD_0": 10
          },
          "indices": 11,
          "material": 2,
          "mode": 4
        }
      ]
    },
    {
      "name": "MonitorBase_StandBase_0",
      "primitives": [
        {
          "attributes": {
            "NORMAL": 13,
            "POSITION": 12,
            "TEXCOORD_0": 14
          },
          "indices": 15,
          "material": 3,
          "mode": 4
        }
      ]
    },
    {
      "name": "MonitorBaseConnector_MonitorStand_0",
      "primitives": [
        {
          "attributes": {
            "NORMAL": 17,
            "POSITION": 16,
            "TEXCOORD_0": 18
          },
          "indices": 19,
          "material": 4,
          "mode": 4
        }
      ]
    },
    {
      "name": "ComputerTower_Tower_0",
      "primitives": [
        {
          "attributes": {
            "NORMAL": 21,
            "POSITION": 20,
            "TEXCOORD_0": 22
          },
          "indices": 23,
          "material": 5,
          "mode": 4
        }
      ]
    },
    {
      "name": "Keyboard_Keyboard_0",
      "primitives": [
        {
          "attributes": {
            "NORMAL": 25,
            "POSITION": 24,
            "TEXCOORD_0": 26
          },
          "indices": 27,
          "material": 6,
          "mode": 4
        }
      ]
    },
    {
      "name": "Keys_KeyboardKeys_0",
      "primitives": [
        {
          "attributes": {
            "NORMAL": 29,
            "POSITION": 28,
            "TEXCOORD_0": 30
          },
          "indices": 31,
          "material": 7,
          "mode": 4
        }
      ]
    }
  ],
  "nodes": [
    {
      "children": [
        1
      ],
      "matrix": [
        1.0,
        0.0,
        0.0,
        0.0,
        0.0,
        2.220446049250313e-16,
        -1.0,
        0.0,
        0.0,
        1.0,
        2.220446049250313e-16,
        0.0,
        0.0,
        0.0,
        0.0,
        1.0
      ],
      "name": "Sketchfab_model"
    },
    {
      "children": [
        2
      ],
      "matrix": [
        1.0,
        0.0,
        0.0,
        0.0,
        0.0,
        0.0,
        1.0,
        0.0,
        0.0,
        -1.0,
        0.0,
        0.0,
        0.0,
        0.0,
        0.0,
        1.0
      ],
      "name": "Computer.fbx"
    },
    {
      "children": [
        3,
        6,
        8,
        11,
        13,
        15,
        17,
        19,
        21
      ],
      "name": "RootNode"
    },
    {
      "children": [
        4
      ],
      "matrix": [
        -29.08647719990347,
        -5.518906457566863,
        -95.51711910171437,
        0.0,
        56.63930913109449,
        79.46723428563203,
        -21.83912397841966,
        0.0,
        77.11008775993375,
        -60.45246356562044,
        -19.98834696773717,
        0.0,
        921.171875,
        280.3358154296875,
        960.1953735351563,
        1.0
      ],
      "name": "Light"
    },
    {
      "children": [
        5
      ],
      "matrix": [
        1.0,
        0.0,
        0.0,
        0.0,
        0.0,
        2.220446049250313e-16,
        1.0,
        0.0,
        0.0,
        -1.0,
        2.220446049250313e-16,
        0.0,
        0.0,
        0.0,
        0.0,
        1.0
      ],
      "name": "Object_4"
    },
    {
      "name": "Object_5"
    },
    {
      "children": [
        7
      ],
      "matrix": [
        62.08851664531161,
        -25.88190857797411,
        -73.99421892975977,
        0.0,
        16.636568594835623,
        96.5925894374944,
        -19.826693547536863,
        0.0,
        76.60444710740076,
        9.350148780229439e-07,
        64.27875763710311,
        0.0,
        -1500.0,
        350.0,
        1750.0,
        1.0
      ],
      "name": "Camera"
    },
    {
      "name": "Object_7"
    },
    {
      "children": [
        9,
        10
      ],
      "matrix": [
        100.0,
        0.0,
        0.0,
        0.0,
        0.0,
        -1.629206793918314e-05,
        -99.99999999999868,
        0.0,
        0.0,
        99.99999999999868,
        -1.629206793918314e-05,
        0.0,
        0.0,
        0.0,
        0.0,
        1.0
      ],
      "name": "Monitor"
    },
    {
      "mesh": 0,
      "name": "Monitor_Monitor_0"
    },
    {
      "mesh": 1,
      "name": "Monitor_MonitorGlass_0"
    },
    {
      "children": [
        12
      ],
      "matrix": [
        100.0,
        0.0,
        0.0,
        0.0,
        0.0,
        -1.629206793918314e-05,
        -99.99999999999868,
        0.0,
        0.0,
        99.99999999999868,
        -1.629206793918314e-05,
        0.0,
        0.0,
        -300.0,
        0.0,
        1.0
      ],
      "name": "UnderMonitor"
    },
    {
      "mesh": 2,
      "name": "UnderMonitor_MonitorBase_0"
    },
    {
      "children": [
        14
      ],
      "matrix": [
        100.0,
        0.0,
        0.0,
        0.0,
        0.0,
        -1.629206793918314e-05,
        -99.99999999999868,
        0.0,
        0.0,
        99.99999999999868,
        -1.629206793918314e-05,
        0.0,
        0.0,
        -327.0,
        -220.00003051757813,
        1.0
      ],
      "name": "MonitorBase"
    },
    {
      "mesh": 3,
      "name": "MonitorBase_StandBase_0"
    },
    {
      "children": [
        16
      ],
      "matrix": [
        100.0,
        0.0,
        0.0,
        0.0,
        0.0,
        -1.629206793918314e-05,
        -99.99999999999868,
        0.0,
        0.0,
        99.99999999999868,
        -1.629206793918314e-05,
        0.0,
        0.0,
        -327.0,
        -220.00003051757813,
        1.0
      ],
      "name": "MonitorBaseConnector"
    },
    {
      "mesh": 4,
      "name": "MonitorBaseConnector_MonitorStand_0"
    },
    {
      "children": [
        18
      ],
      "matrix": [
        350.0,
        0.0,
        0.0,
        0.0,
        0.0,
        -4.480318683275364e-05,
        -274.99999999999636,
        0.0,
        0.0,
        99.99999999999868,
        -1.629206793918314e-05,
        0.0,
        0.0,
        -534.0,
        -180.0,
        1.0
      ],
      "name": "ComputerTower"
    },
    {
      "mesh": 5,
      "name": "ComputerTower_Tower_0"
    },
    {
      "children": [
        20
      ],
      "matrix": [
        100.0,
        0.0,
        0.0,
        0.0,
        -0.0,
        -1.629206793918314e-05,
        -99.99999999999868,
        0.0,
        0.0,
        99.99999999999868,
        -1.629206793918314e-05,
        0.0,
        -19.999998092651367,
        -626.8268432617188,
        319.97686767578125,
        1.0
      ],
      "name": "Keyboard"
    },
    {
      "mesh": 6,
      "name": "Keyboard_Keyboard_0"
    },
    {
      "children": [
        22
      ],
      "matrix": [
        140.0,
        -1.6485116354246519e-15,
        1.2904500008919513e-16,
        0.0,
        1.8787662526666831e-16,
        5.003281771581191,
        -139.91056847684584,
        0.0,
        1.1734619082081683e-15,
        99.93611271608326,
        3.573772421329347,
        0.0,
        281.0000305175781,
        -623.0,
        285.0,
        1.0
      ],
      "name": "Keys"
    },
    {
      "mesh": 7,
      "name": "Keys_KeyboardKeys_0"
    }
  ],
  "scene": 0,
  "scenes": [
    {
      "name": "Sketchfab_Scene",
      "nodes": [
        0
      ]
    }
  ]
}
