<svg xmlns="http://www.w3.org/2000/svg" xmlns:xlink="http://www.w3.org/1999/xlink" width="500" zoomAndPan="magnify" viewBox="0 0 375 374.999991" height="500" preserveAspectRatio="xMidYMid meet" version="1.0"><defs><g/></defs><g fill="#ffffff" fill-opacity="1"><g transform="translate(145.656895, 281.555516)"><g><path d="M 159.453125 -184.734375 L 129.34375 0 L 103.25 0 L 79.71875 -141.578125 L 56.46875 0 L 29.578125 0 L 1.875 -184.734375 L 19.890625 -184.734375 L 43.6875 -22.046875 L 67.890625 -163.21875 L 93.703125 -163.21875 L 116.828125 -22.046875 L 142.78125 -184.734375 Z M 159.453125 -184.734375 "/></g></g></g><path fill="#ffffff" d="M 127.542969 332.261719 C 113.53125 330.589844 97.363281 336.09375 84.507812 328.339844 C 72.011719 320.800781 73.277344 302.984375 73.855469 290.414062 C 75.152344 262.023438 81.96875 228.027344 62.425781 203.851562 C 57.792969 198.121094 51.917969 193.46875 45.339844 190.554688 C 49.578125 188.304688 53.484375 185.371094 56.886719 181.992188 C 66.867188 172.070312 72.328125 158.6875 74.480469 144.917969 C 76.90625 129.390625 75.367188 113.746094 74.222656 98.179688 C 73.632812 90.164062 73.152344 82.113281 73.507812 74.078125 C 73.769531 68.269531 74.449219 61.316406 78.503906 56.78125 C 83.203125 51.511719 91.214844 50.183594 97.914062 50.027344 C 106.925781 49.824219 115.820312 51.234375 124.824219 50.15625 C 128.367188 49.734375 131.382812 40.957031 126.441406 41.546875 C 112.328125 43.230469 97.808594 38.53125 84.316406 44.734375 C 71.34375 50.691406 67.191406 64.695312 66.601562 77.917969 C 65.890625 94.046875 68.445312 110.085938 68.855469 126.183594 C 69.21875 140.386719 67.96875 155.535156 60.578125 168.019531 C 53.457031 180.054688 39.710938 188.21875 25.585938 186.242188 C 22.53125 185.8125 19.324219 191.789062 20.8125 194.121094 C 20.894531 195.46875 21.640625 196.417969 23.382812 196.175781 C 36.140625 194.398438 48.621094 201.363281 56.484375 211.082031 C 65.578125 222.335938 68.59375 237.152344 69.082031 251.300781 C 69.636719 267.109375 67.183594 282.816406 66.792969 298.589844 C 66.476562 311.371094 66.6875 327.289062 78.128906 335.585938 C 91.492188 345.277344 109.183594 339.21875 124.234375 341.015625 C 127.925781 341.46875 131.785156 332.769531 127.542969 332.261719 Z M 127.542969 332.261719 " fill-opacity="1" fill-rule="nonzero"/><g fill="#ed0d91" fill-opacity="1"><g transform="translate(4.939254, 256.259998)"><g><path d="M 185.140625 -72.71875 C 189.660156 -82.769531 193.640625 -90.375 197.078125 -95.53125 C 200.523438 -100.695312 203.757812 -103.816406 206.78125 -104.890625 C 209.8125 -105.960938 211.859375 -106.5 212.921875 -106.5 C 213.992188 -106.5 214.53125 -106.359375 214.53125 -106.078125 C 214.53125 -105.796875 213.925781 -105.351562 212.71875 -104.75 C 211.507812 -104.144531 209.4375 -101.703125 206.5 -97.421875 C 203.570312 -93.140625 199.875 -86.578125 195.40625 -77.734375 C 190.9375 -68.898438 187.03125 -59.550781 183.6875 -49.6875 C 189.363281 -49.6875 192.96875 -49.960938 194.5 -50.515625 C 196.039062 -51.078125 196.972656 -51.171875 197.296875 -50.796875 C 197.617188 -50.429688 197.175781 -49.828125 195.96875 -48.984375 C 192.894531 -46.847656 188.378906 -45.59375 182.421875 -45.21875 C 182.328125 -45.03125 181.585938 -42.800781 180.203125 -38.53125 C 175.546875 -24.101562 173.21875 -14.003906 173.21875 -8.234375 C 173.21875 -4.972656 173.796875 -2.691406 174.953125 -1.390625 C 176.117188 -0.0859375 177.351562 0.5625 178.65625 0.5625 C 179.957031 0.5625 181.398438 0.00390625 182.984375 -1.109375 C 188.285156 -5.023438 194.101562 -13.445312 200.4375 -26.375 C 201.175781 -27.957031 201.894531 -28.609375 202.59375 -28.328125 C 203.289062 -28.054688 203.269531 -27.082031 202.53125 -25.40625 C 199.082031 -18.050781 196.21875 -12.648438 193.9375 -9.203125 C 191.664062 -5.765625 189.085938 -2.601562 186.203125 0.28125 C 182.378906 3.90625 178.5625 5.71875 174.75 5.71875 C 170.46875 5.71875 167.488281 3.953125 165.8125 0.421875 C 164.976562 -1.253906 164.5625 -2.789062 164.5625 -4.1875 C 164.5625 -5.582031 164.582031 -7.046875 164.625 -8.578125 C 164.675781 -10.117188 164.84375 -12.117188 165.125 -14.578125 C 165.40625 -17.046875 166.078125 -20.117188 167.140625 -23.796875 C 168.210938 -27.472656 169.050781 -30.265625 169.65625 -32.171875 C 170.257812 -34.078125 171.164062 -36.65625 172.375 -39.90625 C 173.582031 -43.164062 174.234375 -44.9375 174.328125 -45.21875 C 170.328125 -45.21875 154.554688 -45.820312 127.015625 -47.03125 C 121.335938 -30.101562 112.40625 -14.9375 100.21875 -1.53125 C 94.257812 5.070312 87.328125 10.609375 79.421875 15.078125 C 68.816406 20.941406 57.648438 23.875 45.921875 23.875 C 40.992188 23.875 35.503906 23.148438 29.453125 21.703125 C 23.398438 20.265625 17.675781 17.519531 12.28125 13.46875 C 6.882812 9.414062 3.046875 3.945312 0.765625 -2.9375 C -1.515625 -9.820312 -1.582031 -17.453125 0.5625 -25.828125 C 1.675781 -30.109375 4.160156 -34.109375 8.015625 -37.828125 C 11.878906 -41.546875 15.070312 -43.453125 17.59375 -43.546875 C 18.519531 -43.546875 19.078125 -43.425781 19.265625 -43.1875 C 19.453125 -42.957031 19.378906 -42.679688 19.046875 -42.359375 C 18.722656 -42.035156 18.328125 -41.78125 17.859375 -41.59375 C 15.066406 -40.382812 12.1875 -37.734375 9.21875 -33.640625 C 5.300781 -28.242188 3.34375 -21.960938 3.34375 -14.796875 C 3.34375 -3.628906 8.742188 4.695312 19.546875 10.1875 C 26.054688 13.445312 33.6875 15.078125 42.4375 15.078125 C 46.25 15.078125 49.828125 14.703125 53.171875 13.953125 C 84.722656 6.878906 106.921875 -13.539062 119.765625 -47.3125 C 117.335938 -47.3125 114.984375 -46.773438 112.703125 -45.703125 C 110.429688 -44.640625 108.945312 -44.109375 108.25 -44.109375 C 107.550781 -44.109375 107.15625 -44.382812 107.0625 -44.9375 C 107.0625 -46.519531 108.175781 -48.03125 110.40625 -49.46875 C 112.632812 -50.914062 114.585938 -51.734375 116.265625 -51.921875 L 121.71875 -51.921875 C 127.664062 -66.804688 134.457031 -81.878906 142.09375 -97.140625 C 139.675781 -96.867188 136.234375 -96.546875 131.765625 -96.171875 C 127.296875 -95.796875 123.664062 -95.46875 120.875 -95.1875 C 118.082031 -94.914062 114.640625 -94.453125 110.546875 -93.796875 C 106.453125 -93.140625 103.054688 -92.367188 100.359375 -91.484375 C 97.660156 -90.609375 94.660156 -89.378906 91.359375 -87.796875 C 88.054688 -86.210938 85.285156 -84.394531 83.046875 -82.34375 C 77.742188 -77.320312 73.976562 -71.179688 71.75 -63.921875 C 70.8125 -60.941406 70.34375 -57.773438 70.34375 -54.421875 C 70.34375 -51.078125 71.550781 -47.820312 73.96875 -44.65625 C 76.394531 -41.5 79.609375 -39.921875 83.609375 -39.921875 C 91.515625 -39.921875 97.144531 -44.476562 100.5 -53.59375 C 102.082031 -57.875 102.875 -60.875 102.875 -62.59375 C 102.875 -64.320312 102.566406 -65.625 101.953125 -66.5 C 101.347656 -67.382812 101.515625 -67.921875 102.453125 -68.109375 C 103.097656 -68.203125 103.65625 -67.832031 104.125 -67 C 105.238281 -64.582031 105.796875 -61.976562 105.796875 -59.1875 C 105.796875 -56.394531 104.867188 -53.367188 103.015625 -50.109375 C 99.847656 -44.335938 95.566406 -40.476562 90.171875 -38.53125 C 87.566406 -37.59375 84.957031 -37.125 82.34375 -37.125 C 79.738281 -37.125 77.132812 -37.679688 74.53125 -38.796875 C 69.601562 -40.941406 65.972656 -44.570312 63.640625 -49.6875 C 62.160156 -52.757812 61.421875 -55.691406 61.421875 -58.484375 C 61.421875 -61.273438 61.859375 -64.460938 62.734375 -68.046875 C 63.617188 -71.628906 65.363281 -75.28125 67.96875 -79 C 70.570312 -82.71875 73.828125 -85.71875 77.734375 -88 C 81.648438 -90.28125 85.5625 -92.164062 89.46875 -93.65625 C 93.375 -95.144531 98.003906 -96.257812 103.359375 -97 C 108.710938 -97.75 113.363281 -98.304688 117.3125 -98.671875 C 121.269531 -99.046875 126.039062 -99.375 131.625 -99.65625 C 137.207031 -99.9375 141.347656 -100.21875 144.046875 -100.5 C 145.066406 -102.257812 146.625 -104.421875 148.71875 -106.984375 C 150.8125 -109.546875 152.601562 -111.035156 154.09375 -111.453125 C 155.582031 -111.867188 156.742188 -112.078125 157.578125 -112.078125 C 161.023438 -112.078125 162.75 -110.609375 162.75 -107.671875 C 162.75 -104.742188 160.835938 -102.300781 157.015625 -100.34375 C 153.203125 -98.394531 149.625 -97.421875 146.28125 -97.421875 C 143.769531 -92.585938 140.207031 -83.957031 135.59375 -71.53125 C 130.988281 -59.113281 128.546875 -52.578125 128.265625 -51.921875 C 135.242188 -51.921875 144.25 -51.523438 155.28125 -50.734375 C 166.3125 -49.941406 173.082031 -49.546875 175.59375 -49.546875 C 177.445312 -54.941406 180.628906 -62.664062 185.140625 -72.71875 Z M 155.765625 -107.75 C 154.648438 -107.75 152.328125 -105.472656 148.796875 -100.921875 C 154.835938 -101.847656 157.8125 -103.472656 157.71875 -105.796875 C 157.625 -106.816406 157.113281 -107.421875 156.1875 -107.609375 C 156.09375 -107.703125 155.953125 -107.75 155.765625 -107.75 Z M 155.765625 -107.75 "/></g></g></g><path fill="#ffffff" d="M 266.789062 331.207031 C 280.796875 329.535156 296.964844 335.042969 309.820312 327.289062 C 322.316406 319.75 321.050781 301.929688 320.476562 289.363281 C 319.179688 260.972656 312.359375 226.972656 331.902344 202.796875 C 336.539062 197.070312 342.414062 192.414062 348.988281 189.5 C 344.753906 187.253906 340.84375 184.320312 337.445312 180.941406 C 327.460938 171.015625 322 157.632812 319.847656 143.867188 C 317.421875 128.339844 318.960938 112.691406 320.109375 97.128906 C 320.699219 89.113281 321.175781 81.0625 320.820312 73.027344 C 320.5625 67.21875 319.878906 60.265625 315.828125 55.730469 C 311.125 50.460938 303.113281 49.132812 296.414062 48.976562 C 287.40625 48.769531 278.507812 50.179688 269.507812 49.105469 C 265.964844 48.683594 262.949219 39.90625 267.886719 40.496094 C 282 42.179688 296.519531 37.480469 310.015625 43.683594 C 322.988281 49.640625 327.136719 63.644531 327.726562 76.867188 C 328.441406 92.996094 325.886719 109.035156 325.476562 125.132812 C 325.109375 139.335938 326.363281 154.484375 333.75 166.964844 C 340.875 179 354.617188 187.164062 368.746094 185.191406 C 371.796875 184.761719 375.003906 190.738281 373.515625 193.066406 C 373.433594 194.417969 372.691406 195.367188 370.945312 195.125 C 358.191406 193.347656 345.707031 200.3125 337.847656 210.03125 C 328.75 221.28125 325.734375 236.101562 325.246094 250.25 C 324.695312 266.054688 327.144531 281.761719 327.535156 297.539062 C 327.851562 310.320312 327.640625 326.238281 316.199219 334.53125 C 302.835938 344.226562 285.148438 338.167969 270.09375 339.960938 C 266.402344 340.417969 262.542969 331.71875 266.789062 331.207031 Z M 266.789062 331.207031 " fill-opacity="1" fill-rule="nonzero"/></svg>