<svg xmlns="http://www.w3.org/2000/svg" xmlns:xlink="http://www.w3.org/1999/xlink" width="500" zoomAndPan="magnify" viewBox="0 0 375 374.999991" height="500" preserveAspectRatio="xMidYMid meet" version="1.0"><defs><clipPath id="43bca9d5cf"><path d="M 80 0 L 299.660156 0 L 299.660156 370 L 80 370 Z M 80 0 " clip-rule="nonzero"/></clipPath></defs><g clip-path="url(#43bca9d5cf)"><path fill="#e07171" d="M 278.902344 0 C 278.851562 23.449219 278.851562 46.910156 278.84375 70.359375 L 100.855469 70.359375 L 100.855469 0 L 80.210938 0 C 80.078125 67.40625 80.136719 134.824219 80.160156 202.230469 L 100.855469 202.230469 L 100.855469 91.464844 C 113.679688 91.554688 126.511719 91.472656 139.34375 91.511719 C 140.976562 91.523438 142.609375 91.929688 144.644531 92.203125 C 143.886719 93.53125 143.65625 94.203125 143.207031 94.675781 C 110.832031 129.261719 119.238281 188.871094 165.453125 213.132812 C 187.394531 224.652344 208.421875 238.027344 229.214844 251.554688 C 248.542969 264.117188 256.375 288.832031 249.464844 310.628906 C 242.304688 333.210938 221.378906 348.710938 198.195312 348.601562 C 171.019531 348.46875 148.476562 328.238281 144.984375 301.105469 C 144.726562 299.105469 143.015625 295.808594 141.730469 295.675781 C 135.941406 295.085938 130.054688 295.417969 123.597656 295.417969 C 124.015625 299.34375 124.253906 302.050781 124.59375 304.746094 C 128.445312 335.078125 150.914062 360.503906 180.027344 367.480469 C 211.273438 374.976562 243.085938 362.476562 260.695312 335.808594 C 277.375 310.539062 276.464844 276.132812 258.9375 251.363281 C 249.855469 238.527344 236.757812 230.917969 224.007812 222.726562 C 221.851562 221.339844 219.726562 219.914062 216.550781 217.832031 C 244.546875 209.109375 262.726562 192.03125 270.042969 165.101562 C 277.367188 138.160156 270.804688 113.878906 250.867188 91.613281 C 257.816406 91.613281 262.777344 91.480469 267.722656 91.65625 C 267.902344 91.664062 268.078125 91.65625 278.84375 91.644531 C 278.84375 128.507812 278.859375 165.367188 278.867188 202.230469 L 299.5625 202.230469 L 299.5625 0 Z M 251.925781 145.742188 C 251.777344 174.96875 227.390625 198.875 197.871094 198.726562 C 168.359375 198.578125 144.484375 174.464844 144.617188 144.929688 C 144.75 115.472656 168.847656 91.539062 198.320312 91.597656 C 228.03125 91.644531 252.078125 115.945312 251.925781 145.742188 Z M 251.925781 145.742188 " fill-opacity="1" fill-rule="nonzero"/></g></svg>