<svg xmlns="http://www.w3.org/2000/svg" xmlns:xlink="http://www.w3.org/1999/xlink" width="500" zoomAndPan="magnify" viewBox="0 0 375 374.999991" height="500" preserveAspectRatio="xMidYMid meet" version="1.0"><defs><clipPath id="0cbdc33e10"><path d="M 196 58.035156 L 374 58.035156 L 374 330 L 196 330 Z M 196 58.035156 " clip-rule="nonzero"/></clipPath><clipPath id="dd89788001"><path d="M 326 58.035156 L 375 58.035156 L 375 89 L 326 89 Z M 326 58.035156 " clip-rule="nonzero"/></clipPath><clipPath id="ae6e1d2923"><path d="M 1 58.035156 L 179 58.035156 L 179 331 L 1 331 Z M 1 58.035156 " clip-rule="nonzero"/></clipPath></defs><g clip-path="url(#0cbdc33e10)"><path fill="#db0606" d="M 263.261719 156.75 L 318.867188 156.75 C 316.246094 194.738281 272.0625 255.164062 242.015625 262.628906 L 242.015625 58.109375 L 196.148438 58.109375 L 196.148438 329.839844 C 247.542969 318.121094 291.339844 295.382812 323.707031 253.875 C 356.132812 212.277344 369.292969 163.847656 373.066406 111.738281 L 263.261719 111.738281 Z M 263.261719 156.75 " fill-opacity="1" fill-rule="nonzero"/></g><g clip-path="url(#dd89788001)"><path fill="#db0606" d="M 326.746094 58.109375 C 327.667969 68.242188 328.257812 78.421875 328.984375 88.769531 L 375 88.769531 C 374.035156 78.347656 373.066406 68.179688 372.128906 58.109375 Z M 326.746094 58.109375 " fill-opacity="1" fill-rule="nonzero"/></g><g clip-path="url(#ae6e1d2923)"><path fill="#db0606" d="M 133.40625 58.109375 C 133.398438 71.394531 133.386719 84.679688 133.386719 97.960938 C 133.386719 101.992188 133.386719 106.011719 133.386719 110.414062 L 46.425781 110.414062 C 46.980469 92.921875 47.527344 75.546875 48.082031 58.109375 L 2.164062 58.109375 C 0 86.828125 1 115.527344 5.6875 144.179688 C 14.035156 195.195312 33.796875 240.664062 72.199219 276.59375 C 79.535156 283.453125 87.441406 289.691406 96.917969 297.785156 C 96.917969 276.523438 97.09375 258.152344 96.71875 239.804688 C 96.667969 237.125 94.324219 234.15625 92.371094 231.90625 C 75.875 212.921875 64.785156 191.085938 57.789062 167.050781 C 56.886719 163.964844 56.230469 160.804688 55.453125 157.625 L 133.398438 157.625 L 133.398438 170.578125 C 133.398438 215.929688 133.308594 261.289062 133.558594 306.636719 C 133.574219 310.09375 135.035156 315.722656 137.304688 316.628906 C 150.511719 321.871094 164.160156 326.007812 178.839844 330.914062 L 178.839844 58.109375 Z M 133.40625 58.109375 " fill-opacity="1" fill-rule="nonzero"/></g></svg>